<?xml version="1.0" encoding="UTF-8" standalone="no"?>
<svg
   aria-hidden="true"
   focusable="false"
   data-prefix="fas"
   data-icon="file-csv"
   class="svg-inline--fa fa-file-csv fa-w-12"
   role="img"
   viewBox="0 0 384 512"
   version="1.1"
   id="svg4"
   sodipodi:docname="file-tsv-solid.svg"
   inkscape:version="1.1.1 (3bf5ae0, 2021-09-20)"
   xmlns:inkscape="http://www.inkscape.org/namespaces/inkscape"
   xmlns:sodipodi="http://sodipodi.sourceforge.net/DTD/sodipodi-0.dtd"
   xmlns="http://www.w3.org/2000/svg"
   xmlns:svg="http://www.w3.org/2000/svg">
  <defs
     id="defs8" />
  <sodipodi:namedview
     id="namedview6"
     pagecolor="#ffffff"
     bordercolor="#666666"
     borderopacity="1.0"
     inkscape:pageshadow="2"
     inkscape:pageopacity="0.0"
     inkscape:pagecheckerboard="0"
     showgrid="false"
     inkscape:zoom="0.94188829"
     inkscape:cx="34.505153"
     inkscape:cy="178.3651"
     inkscape:window-width="1920"
     inkscape:window-height="993"
     inkscape:window-x="0"
     inkscape:window-y="25"
     inkscape:window-maximized="1"
     inkscape:current-layer="svg4" />
  <path
     fill="currentColor"
     d="M224 136V0H24C10.7 0 0 10.7 0 24v464c0 13.3 10.7 24 24 24h336c13.3 0 24-10.7 24-24V160H248c-13.2 0-24-10.8-24-24zm-96 144c0 4.42-3.58 8-8 8h-8c-8.84 0-16 7.16-16 16v32c0 8.84 7.16 16 16 16h8c4.42 0 8 3.58 8 8v16c0 4.42-3.58 8-8 8h-8c-26.51 0-48-21.49-48-48v-32c0-26.51 21.49-48 48-48h8c4.42 0 8 3.58 8 8v16zm44.27 104H160c-4.42 0-8-3.58-8-8v-16c0-4.42 3.58-8 8-8h12.27c5.95 0 10.41-3.5 10.41-6.62 0-1.3-.75-2.66-2.12-3.84l-21.89-18.77c-8.47-7.22-13.33-17.48-13.33-28.14 0-21.3 19.02-38.62 42.41-38.62H200c4.42 0 8 3.58 8 8v16c0 4.42-3.58 8-8 8h-12.27c-5.95 0-10.41 3.5-10.41 6.62 0 1.3.75 2.66 2.12 3.84l21.89 18.77c8.47 7.22 13.33 17.48 13.33 28.14.01 21.29-19 38.62-42.39 38.62zM256 264v20.8c0 20.27 5.7 40.17 16 56.88 10.3-16.7 16-36.61 16-56.88V264c0-4.42 3.58-8 8-8h16c4.42 0 8 3.58 8 8v20.8c0 35.48-12.88 68.89-36.28 94.09-3.02 3.25-7.27 5.11-11.72 5.11s-8.7-1.86-11.72-5.11c-23.4-25.2-36.28-58.61-36.28-94.09V264c0-4.42 3.58-8 8-8h16c4.42 0 8 3.58 8 8zm121-159L279.1 7c-4.5-4.5-10.6-7-17-7H256v128h128v-6.1c0-6.3-2.5-12.4-7-16.9z"
     id="path2"
     style="fill:#67ac5f;fill-opacity:1" />
  <rect
     style="fill:#67ac5f;fill-opacity:1;fill-rule:evenodd;stroke:none;stroke-width:15.1181"
     id="rect923"
     width="332.45029"
     height="186.76213"
     x="35.352417"
     y="215.95367"
     rx="23.818399" />
  <text
     xml:space="preserve"
     style="font-size:157.255px;line-height:1.55;font-family:sans-serif;letter-spacing:0px;word-spacing:0px;stroke-width:1.0722"
     x="68.103661"
     y="309.9812"
     id="text4186"
     transform="scale(0.82886183,1.2064737)"><tspan
       sodipodi:role="line"
       id="tspan4184"
       x="68.103661"
       y="309.9812"
       style="font-weight:bold;font-size:157.255px;fill:#ffffff;fill-opacity:1;stroke:none;stroke-width:1.0722;stroke-opacity:1">TSV</tspan></text>
</svg>
